<svg xmlns="http://www.w3.org/2000/svg" viewBox="0 0 100 100" width="100" height="100"><defs><linearGradient id="s" x1="0" y1="80" x2="0" y2="20" gradientUnits="userSpaceOnUse"><stop offset="0" stop-color="#2E6B3E"/><stop offset="1" stop-color="#163E28"/></linearGradient><linearGradient id="l" x1="0" y1="80" x2="0" y2="20" gradientUnits="userSpaceOnUse"><stop offset="0" stop-color="#5FA84F"/><stop offset="1" stop-color="#1F4A30"/></linearGradient></defs><path d="M 48.5 48.5 C 47.8 59, 49.3 68, 49 80 L 51 80 C 50.7 68, 52.2 59, 51.5 48.5 Z" fill="url(#s)"/><path d="M 50 63 C 37 60, 26 66, 21 79 C 34 77, 45 72, 50 63 Z" fill="url(#l)"/><path d="M 47.5 65 C 38 68, 30 72, 24.5 78" fill="none" stroke="#163E28" stroke-width="1" stroke-linecap="round" opacity=".5"/><path d="M 50 63 C 63 60, 74 66, 79 79 C 66 77, 55 72, 50 63 Z" fill="url(#l)"/><path d="M 52.5 65 C 62 68, 70 72, 75.5 78" fill="none" stroke="#163E28" stroke-width="1" stroke-linecap="round" opacity=".5"/><path d="M 0 0 C -6.097 -7.27, -3.209 -22.77, 0 -24.219 C 3.209 -22.77, 6.097 -7.27, 0 0 Z" transform="translate(50 47) rotate(-75)" fill="#0A5E91" stroke="#ffffff" stroke-width="0.8" stroke-linejoin="round"/><path d="M 0 0 C -6.851 -8.16, -3.606 -25.58, 0 -27.214 C 3.606 -25.58, 6.851 -8.16, 0 0 Z" transform="translate(50 47) rotate(-50)" fill="#1E9BD6" stroke="#ffffff" stroke-width="0.8" stroke-linejoin="round"/><path d="M 0 0 C -7.369 -8.78, -3.878 -27.51, 0 -29.269 C 3.878 -27.51, 7.369 -8.78, 0 0 Z" transform="translate(50 47) rotate(-25)" fill="#3FA255" stroke="#ffffff" stroke-width="0.8" stroke-linejoin="round"/><path d="M 0 0 C -7.553 -9.00, -3.975 -28.20, 0 -30.000 C 3.975 -28.20, 7.553 -9.00, 0 0 Z" transform="translate(50 47) rotate(0)" fill="#7BD08A" stroke="#ffffff" stroke-width="0.8" stroke-linejoin="round"/><path d="M 0 0 C -7.369 -8.78, -3.878 -27.51, 0 -29.269 C 3.878 -27.51, 7.369 -8.78, 0 0 Z" transform="translate(50 47) rotate(25)" fill="#3FA255" stroke="#ffffff" stroke-width="0.8" stroke-linejoin="round"/><path d="M 0 0 C -6.851 -8.16, -3.606 -25.58, 0 -27.214 C 3.606 -25.58, 6.851 -8.16, 0 0 Z" transform="translate(50 47) rotate(50)" fill="#1E9BD6" stroke="#ffffff" stroke-width="0.8" stroke-linejoin="round"/><path d="M 0 0 C -6.097 -7.27, -3.209 -22.77, 0 -24.219 C 3.209 -22.77, 6.097 -7.27, 0 0 Z" transform="translate(50 47) rotate(75)" fill="#0A5E91" stroke="#ffffff" stroke-width="0.8" stroke-linejoin="round"/><circle cx="50" cy="46" r="3.3" fill="#F5A623" stroke="#ffffff" stroke-width="0.8"/></svg>